<svg width="25" height="25" viewBox="0 0 25 25" fill="none" xmlns="http://www.w3.org/2000/svg">
<path fill-rule="evenodd" clip-rule="evenodd" d="M2.5 1.75049C2.08579 1.75049 1.75 2.08627 1.75 2.50049C1.75 2.9147 2.08579 3.25049 2.5 3.25049H4.24001C4.87993 3.25049 5.38589 3.80461 5.33259 4.4382L4.50267 14.3973C4.32544 16.4673 5.96335 18.2405 8.03999 18.2405H18.69C20.5257 18.2405 22.108 16.755 22.2478 14.938L22.2481 14.9344L22.788 7.43457C22.9396 5.33772 21.333 3.62048 19.23 3.62048H6.73293C6.41944 2.55059 5.42958 1.75049 4.24001 1.75049H2.5ZM5.99741 14.5228L6.78094 5.12048H19.23C20.467 5.12048 21.3804 6.10349 21.2919 7.32663L21.2614 7.75049H9.5C9.08579 7.75049 8.75 8.08627 8.75 8.50049C8.75 8.9147 9.08579 9.25049 9.5 9.25049H21.1534L20.7522 14.823L20.7521 14.8246C20.671 15.8669 19.7338 16.7405 18.69 16.7405H8.03999C6.83696 16.7405 5.89508 15.7142 5.99725 14.5247L5.99741 14.5228ZM16.25 21.2505C16.25 20.9743 16.4739 20.7505 16.75 20.7505C17.0261 20.7505 17.25 20.9743 17.25 21.2505C17.25 21.5266 17.0261 21.7505 16.75 21.7505C16.4739 21.7505 16.25 21.5266 16.25 21.2505ZM16.75 19.2505C15.6454 19.2505 14.75 20.1459 14.75 21.2505C14.75 22.3551 15.6454 23.2505 16.75 23.2505C17.8546 23.2505 18.75 22.3551 18.75 21.2505C18.75 20.1459 17.8546 19.2505 16.75 19.2505ZM8.75 20.7505C8.47386 20.7505 8.25 20.9743 8.25 21.2505C8.25 21.5266 8.47386 21.7505 8.75 21.7505C9.02614 21.7505 9.25 21.5266 9.25 21.2505C9.25 20.9743 9.02614 20.7505 8.75 20.7505ZM6.75 21.2505C6.75 20.1459 7.64543 19.2505 8.75 19.2505C9.85457 19.2505 10.75 20.1459 10.75 21.2505C10.75 22.3551 9.85457 23.2505 8.75 23.2505C7.64543 23.2505 6.75 22.3551 6.75 21.2505Z" fill="white"/>
</svg>
