<svg width="24" height="25" viewBox="0 0 24 25" fill="none" xmlns="http://www.w3.org/2000/svg">
<path fill-rule="evenodd" clip-rule="evenodd" d="M11.9999 8.17053C9.60571 8.17053 7.66992 10.1063 7.66992 12.5005C7.66992 14.8947 9.60571 16.8305 11.9999 16.8305C14.3941 16.8305 16.3299 14.8947 16.3299 12.5005C16.3299 10.1063 14.3941 8.17053 11.9999 8.17053ZM9.16992 12.5005C9.16992 10.9347 10.4341 9.67053 11.9999 9.67053C13.5657 9.67053 14.8299 10.9347 14.8299 12.5005C14.8299 14.0663 13.5657 15.3305 11.9999 15.3305C10.4341 15.3305 9.16992 14.0663 9.16992 12.5005Z" fill="#1F1F1F"/>
<path fill-rule="evenodd" clip-rule="evenodd" d="M11.9998 3.47046C8.15186 3.47046 4.64826 5.73906 2.25734 9.49742C1.71214 10.3518 1.46484 11.4464 1.46484 12.4955C1.46484 13.5443 1.71205 14.6387 2.25703 15.493C4.64795 19.2517 8.1517 21.5205 11.9998 21.5205C15.848 21.5205 19.3517 19.2517 21.7427 15.493C22.2876 14.6387 22.5348 13.5443 22.5348 12.4955C22.5348 11.4466 22.2876 10.3523 21.7427 9.49792C19.3517 5.73926 15.848 3.47046 11.9998 3.47046ZM3.52266 10.303C5.71174 6.86166 8.78799 4.97046 11.9998 4.97046C15.2117 4.97046 18.288 6.86166 20.477 10.303L20.4777 10.304C20.8322 10.8595 21.0348 11.6547 21.0348 12.4955C21.0348 13.3362 20.8322 14.1314 20.4777 14.6869L20.477 14.6879C18.288 18.1293 15.2117 20.0205 11.9998 20.0205C8.78799 20.0205 5.71174 18.1293 3.52266 14.6879L3.52204 14.6869C3.16745 14.1314 2.96484 13.3362 2.96484 12.4955C2.96484 11.6547 3.16745 10.8595 3.52204 10.304L3.52266 10.303Z" fill="#1F1F1F"/>
</svg>
