<svg width="40" height="40" viewBox="0 0 40 40" fill="none" xmlns="http://www.w3.org/2000/svg">
<rect width="40" height="40" rx="4" fill="white"/>
<g filter="url(#filter0_d_2005_404)">
<path d="M25 20C25 19.7213 25.0527 19.4614 25.1582 19.2203C25.2637 18.9793 25.4068 18.7684 25.5876 18.5876C25.7684 18.4068 25.9793 18.2637 26.2203 18.1582C26.4614 18.0527 26.7213 18 27 18C27.2787 18 27.5386 18.0527 27.7797 18.1582C28.0207 18.2637 28.2316 18.4068 28.4124 18.5876C28.5932 18.7684 28.7363 18.9793 28.8418 19.2203C28.9473 19.4614 29 19.7213 29 20C29 20.2787 28.9473 20.5386 28.8418 20.7797C28.7363 21.0207 28.5932 21.2316 28.4124 21.4124C28.2316 21.5932 28.0207 21.7363 27.7797 21.8418C27.5386 21.9473 27.2787 22 27 22C26.7213 22 26.4614 21.9473 26.2203 21.8418C25.9793 21.7363 25.7684 21.5932 25.5876 21.4124C25.4068 21.2316 25.2637 21.0207 25.1582 20.7797C25.0527 20.5386 25 20.2787 25 20Z" fill="#1F1F1F"/>
<path d="M18 20C18 19.7213 18.0527 19.4614 18.1582 19.2203C18.2637 18.9793 18.4068 18.7684 18.5876 18.5876C18.7684 18.4068 18.9793 18.2637 19.2203 18.1582C19.4614 18.0527 19.7213 18 20 18C20.2787 18 20.5386 18.0527 20.7797 18.1582C21.0207 18.2637 21.2316 18.4068 21.4124 18.5876C21.5932 18.7684 21.7363 18.9793 21.8418 19.2203C21.9473 19.4614 22 19.7213 22 20C22 20.2787 21.9473 20.5386 21.8418 20.7797C21.7363 21.0207 21.5932 21.2316 21.4124 21.4124C21.2316 21.5932 21.0207 21.7363 20.7797 21.8418C20.5386 21.9473 20.2787 22 20 22C19.7213 22 19.4614 21.9473 19.2203 21.8418C18.9793 21.7363 18.7684 21.5932 18.5876 21.4124C18.4068 21.2316 18.2637 21.0207 18.1582 20.7797C18.0527 20.5386 18 20.2787 18 20Z" fill="#1F1F1F"/>
<path d="M11 20C11 19.7213 11.0527 19.4614 11.1582 19.2203C11.2637 18.9793 11.4068 18.7684 11.5876 18.5876C11.7684 18.4068 11.9793 18.2637 12.2203 18.1582C12.4614 18.0527 12.7213 18 13 18C13.2787 18 13.5386 18.0527 13.7797 18.1582C14.0207 18.2637 14.2316 18.4068 14.4124 18.5876C14.5932 18.7684 14.7363 18.9793 14.8418 19.2203C14.9473 19.4614 15 19.7213 15 20C15 20.2787 14.9473 20.5386 14.8418 20.7797C14.7363 21.0207 14.5932 21.2316 14.4124 21.4124C14.2316 21.5932 14.0207 21.7363 13.7797 21.8418C13.5386 21.9473 13.2787 22 13 22C12.7213 22 12.4614 21.9473 12.2203 21.8418C11.9793 21.7363 11.7684 21.5932 11.5876 21.4124C11.4068 21.2316 11.2637 21.0207 11.1582 20.7797C11.0527 20.5386 11 20.2787 11 20Z" fill="#1F1F1F"/>
<path d="M11.234 18.234L11.234 18.234C11.0079 18.4602 10.8298 18.7235 10.7001 19.0199C10.5654 19.3279 10.5 19.6565 10.5 20C10.5 20.3435 10.5654 20.6721 10.7001 20.9801C10.8298 21.2765 11.0079 21.5398 11.234 21.766C11.4602 21.9921 11.7234 22.1702 12.0199 22.2999C12.3279 22.4346 12.6565 22.5 13 22.5C13.3435 22.5 13.6721 22.4346 13.9801 22.2999C14.2765 22.1702 14.5398 21.9921 14.766 21.766C14.9921 21.5398 15.1702 21.2765 15.2999 20.9801C15.4346 20.6721 15.5 20.3435 15.5 20C15.5 19.6565 15.4346 19.3279 15.2999 19.0199C15.1702 18.7234 14.9921 18.4602 14.766 18.234L14.4124 18.5876L14.766 18.234C14.5398 18.0079 14.2765 17.8298 13.9801 17.7001C13.6721 17.5654 13.3435 17.5 13 17.5C12.6565 17.5 12.3279 17.5654 12.0199 17.7001C11.7235 17.8298 11.4602 18.0079 11.234 18.234ZM18.234 18.234L18.5876 18.5876L18.234 18.234C18.0079 18.4602 17.8298 18.7235 17.7001 19.0199C17.5654 19.3279 17.5 19.6565 17.5 20C17.5 20.3435 17.5654 20.6721 17.7001 20.9801C17.8298 21.2765 18.0079 21.5398 18.234 21.766C18.4602 21.9921 18.7234 22.1702 19.0199 22.2999C19.3279 22.4346 19.6565 22.5 20 22.5C20.3435 22.5 20.6721 22.4346 20.9801 22.2999C21.2765 22.1702 21.5398 21.9921 21.766 21.766C21.9921 21.5398 22.1702 21.2765 22.2999 20.9801C22.4346 20.6721 22.5 20.3435 22.5 20C22.5 19.6565 22.4346 19.3279 22.2999 19.0199C22.1702 18.7234 21.9921 18.4602 21.766 18.234C21.5398 18.0079 21.2765 17.8298 20.9801 17.7001C20.6721 17.5654 20.3435 17.5 20 17.5C19.6565 17.5 19.3279 17.5654 19.0199 17.7001C18.7235 17.8298 18.4602 18.0079 18.234 18.234ZM24.7001 19.0199C24.5654 19.3279 24.5 19.6565 24.5 20C24.5 20.3435 24.5654 20.6721 24.7001 20.9801C24.8298 21.2765 25.0079 21.5398 25.234 21.766C25.4602 21.9921 25.7234 22.1702 26.0199 22.2999C26.3279 22.4346 26.6565 22.5 27 22.5C27.3435 22.5 27.6721 22.4346 27.9801 22.2999C28.2766 22.1702 28.5398 21.9921 28.766 21.766C28.9921 21.5398 29.1702 21.2765 29.2999 20.9801C29.4346 20.6721 29.5 20.3435 29.5 20C29.5 19.6565 29.4346 19.3279 29.2999 19.0199C29.1702 18.7234 28.9921 18.4602 28.766 18.234C28.5398 18.0079 28.2766 17.8298 27.9801 17.7001C27.6721 17.5654 27.3435 17.5 27 17.5C26.6565 17.5 26.3279 17.5654 26.0199 17.7001C25.7235 17.8298 25.4602 18.0079 25.234 18.234C25.0079 18.4602 24.8298 18.7235 24.7001 19.0199Z" stroke="black"/>
</g>
<defs>
<filter id="filter0_d_2005_404" x="6" y="17" width="28" height="14" filterUnits="userSpaceOnUse" color-interpolation-filters="sRGB">
<feFlood flood-opacity="0" result="BackgroundImageFix"/>
<feColorMatrix in="SourceAlpha" type="matrix" values="0 0 0 0 0 0 0 0 0 0 0 0 0 0 0 0 0 0 127 0" result="hardAlpha"/>
<feOffset dy="4"/>
<feGaussianBlur stdDeviation="2"/>
<feComposite in2="hardAlpha" operator="out"/>
<feColorMatrix type="matrix" values="0 0 0 0 0 0 0 0 0 0 0 0 0 0 0 0 0 0 0.25 0"/>
<feBlend mode="normal" in2="BackgroundImageFix" result="effect1_dropShadow_2005_404"/>
<feBlend mode="normal" in="SourceGraphic" in2="effect1_dropShadow_2005_404" result="shape"/>
</filter>
</defs>
</svg>
